{"title":"The AFL Footy Show - 15-9-2016","uid":15895897,"size":2393868968,"categoryP":"video","categoryS":"tv_shows","magnet":"?xt=urn:btih:ea10883f4440774daac5fd5c23d0fe45edecea33&amp;dn=The+AFL+Footy+Show+-+15-9-2016&amp;tr=udp%3A%2F%2Ftracker.leechers-paradise.org%3A6969&amp;tr=udp%3A%2F%2Fzer0day.ch%3A1337&amp;tr=udp%3A%2F%2Fopen.demonii.com%3A1337&amp;tr=udp%3A%2F%2Ftracker.coppersurfer.tk%3A6969&amp;tr=udp%3A%2F%2Fexodus.desync.com%3A6969","seeders":7,"leechers":5,"uploader":"Bullrout","files":1,"time":1474801887,"description":"The AFL Footy Show - 15-9-2016\r\n\r\nThe Logie award-winning AFL Footy Show celebrates its 23rd season. The biggest names in football bring viewers all the latest in the world of AFL including, breaking news, team line-ups and entertainment. Plus the AFLâ™s biggest stars and regular favourite segments, Street Talk and Sam's Mailbag.\r\n\r\n\r\nComplete name : The AFL Footy Show - 15-9-2016.mkv\r\nFormat : Matroska\r\nFormat version : Version 4 / Version 2\r\nFile size : 2.23 GiB\r\nDuration : 1 h 35 min\r\nOverall bit rate mode : Variable\r\nOverall bit rate : 3 326 kb/s\r\nEncoded date : UTC 2016-09-21 02:24:32\r\nWriting application : mkvmerge v9.4.2 ('So High') 64bit\r\nWriting library : libebml v1.3.4 + libmatroska v1.4.5\r\n\r\nVideo\r\nID : 2\r\nFormat : AVC\r\nFormat/Info : Advanced Video Codec\r\nFormat profile :   \r\nFormat settings, CABAC : Yes\r\nFormat settings, ReFrames : 3 frames\r\nCodec ID : V_MPEG4/ISO/AVC\r\nDuration : 1 h 35 min\r\nBit rate mode : Variable\r\nBit rate : 2 940 kb/s\r\nMaximum bit rate : 3 000 kb/s\r\nWidth : 1 280 pixels\r\nHeight : 720 pixels\r\nDisplay aspect ratio : 16:9\r\nFrame rate mode : Constant\r\nFrame rate : 25.000 FPS\r\nStandard : PAL\r\nColor space : YUV\r\nChroma subsampling : 4:2:0\r\nBit depth : 8 bits\r\nScan type : Progressive\r\nBits/(Pixel*Frame) : 0.128\r\nStream size : 1.97 GiB (88%)\r\nWriting library : x264 core 112\r\nDefault : Yes\r\nForced : No\r\nColor range : Limited\r\nColor primaries : BT.709\r\nTransfer characteristics : BT.709\r\nMatrix coefficients : BT.709\r\n\r\nAudio\r\nID : 1\r\nFormat : AC-3\r\nFormat/Info : Audio Coding 3\r\nMode extension : CM (complete main)\r\nFormat settings, Endianness : Big\r\nCodec ID : A_AC3\r\nDuration : 1 h 35 min\r\nBit rate mode : Constant\r\nBit rate : 384 kb/s\r\nChannel(s) : 6 channels\r\nChannel positions : Front: L C R, Side: L R, LFE\r\nSampling rate : 48.0 kHz\r\nFrame rate : 31.250 FPS (1536 spf)\r\nCompression mode : Lossy\r\nStream size : 264 MiB (12%)\r\nDefault : Yes\r\nForced : No","torrent":{"xt":"urn:btih:ea10883f4440774daac5fd5c23d0fe45edecea33","amp;dn":"The+AFL+Footy+Show+-+15-9-2016","amp;tr":["udp%3A%2F%2Ftracker.leechers-paradise.org%3A6969","udp%3A%2F%2Fzer0day.ch%3A1337","udp%3A%2F%2Fopen.demonii.com%3A1337","udp%3A%2F%2Ftracker.coppersurfer.tk%3A6969","udp%3A%2F%2Fexodus.desync.com%3A6969"],"infoHash":"ea10883f4440774daac5fd5c23d0fe45edecea33","infoHashBuffer":{"type":"Buffer","data":[234,16,136,63,68,64,119,77,170,197,253,92,35,208,254,69,237,236,234,51]},"announce":[],"urlList":[]}}